# xmcd CD database file
# Copyright (C) 1993-1998 Ti Kan
#
# Track frame offsets:
#	182
#	11015
#	22507
#	34935
#	48082
#	59140
#	74525
#	87785
#	100830
#	113872
#	127247
#	141325
#	155740
#	165542
#	184025
#	195452
#	205342
#	216857
#	229327
#	242360
#	251612
#	273880
#	286495
#	296435
#
# Disc length: 4102 seconds
#
# Revision: 1
# Processed by: cddbd v1.4b41PL1 Copyright (c) Steve Scherf et al.
# Submitted via: CDValet v3.31 - Copyright (c) 1997 Greg Leichner
#
DISCID=61100418
DTITLE=Nostalgia 100 Años De Bolero - Varios
DYEAR=1900
DGENRE=
TTITLE0=Nosotros
TTITLE1=Mar y Cielo
TTITLE2=Azul
TTITLE3=Temor
TTITLE4=Dos Almas
TTITLE5=Historia De Un Amor
TTITLE6=Vanidad
TTITLE7=Recuerdos De Ti
TTITLE8=Volver a Empezar
TTITLE9=El Andariego
TTITLE10=La Noche De Anoche
TTITLE11=Consentida
TTITLE12=Por La Cruz
TTITLE13=Rosa
TTITLE14=Campanitas De Cristal
TTITLE15=Hay Que Saber Perder
TTITLE16=Falsa
TTITLE17=Traicionera
TTITLE18=Frío En El Alma
TTITLE19=Si Tu Me Quisieras
TTITLE20=Potpurri (Extraño Sentir, Siempre Feliz, Ya La Pagarás
TTITLE20=)
TTITLE21=Cabellera Negra
TTITLE22=Seguiré Mi Viaje
TTITLE23=Amapola
EXTD=
EXTT0=
EXTT1=
EXTT2=
EXTT3=
EXTT4=
EXTT5=
EXTT6=
EXTT7=
EXTT8=
EXTT9=
EXTT10=
EXTT11=
EXTT12=
EXTT13=
EXTT14=
EXTT15=
EXTT16=
EXTT17=
EXTT18=
EXTT19=
EXTT20=
EXTT21=
EXTT22=
EXTT23=
PLAYORDER=
